{"glyphs":{"\u0000":{"ha":0,"x_min":0,"x_max":0,"o":""},"\r":{"ha":764,"x_min":0,"x_max":0,"o":""}," ":{"ha":764,"x_min":0,"x_max":0,"o":""},"F":{"ha":764,"x_min":44,"x_max":719,"o":"m 568 972 l 719 813 l 719 675 l 522 675 l 522 739 l 486 775 l 276 775 l 242 739 l 242 536 l 486 536 l 486 339 l 242 339 l 242 0 l 44 0 l 44 813 l 196 972 l 568 972 z "},"G":{"ha":764,"x_min":44,"x_max":719,"o":"m 382 536 l 719 536 l 719 161 l 568 0 l 196 0 l 44 161 l 44 813 l 196 972 l 568 972 l 719 813 l 719 675 l 522 675 l 522 739 l 486 775 l 276 775 l 242 739 l 242 233 l 276 197 l 486 197 l 522 233 l 522 339 l 382 339 l 382 536 z "},"H":{"ha":764,"x_min":44,"x_max":719,"o":"m 719 972 l 719 0 l 522 0 l 522 339 l 242 339 l 242 0 l 44 0 l 44 972 l 242 972 l 242 536 l 522 536 l 522 972 l 719 972 z "},"I":{"ha":281,"x_min":42,"x_max":239,"o":"m 239 0 l 42 0 l 42 972 l 239 972 l 239 0 z "},"J":{"ha":764,"x_min":44,"x_max":719,"o":"m 196 0 l 44 160 l 44 296 l 242 296 l 242 233 l 278 197 l 488 197 l 522 233 l 522 972 l 719 972 l 719 160 l 568 0 l 196 0 z "},"K":{"ha":764,"x_min":44,"x_max":719,"o":"m 44 0 l 44 972 l 242 972 l 242 536 l 486 536 l 522 572 l 522 972 l 719 972 l 719 499 l 661 438 l 719 376 l 719 0 l 522 0 l 522 303 l 486 339 l 242 339 l 242 0 l 44 0 z "},"X":{"ha":764,"x_min":44,"x_max":719,"o":"m 278 339 l 242 303 l 242 0 l 44 0 l 44 376 l 103 438 l 44 499 l 44 972 l 242 972 l 242 572 l 278 536 l 486 536 l 522 572 l 522 972 l 719 972 l 719 499 l 661 438 l 719 376 l 719 0 l 522 0 l 522 303 l 486 339 l 278 339 z "},"L":{"ha":764,"x_min":44,"x_max":719,"o":"m 196 0 l 44 160 l 44 972 l 242 972 l 242 233 l 276 197 l 719 197 l 719 0 l 196 0 z "},"M":{"ha":1236,"x_min":42,"x_max":1194,"o":"m 1043 972 l 1194 813 l 1194 0 l 997 0 l 997 739 l 963 775 l 753 775 l 717 739 l 717 0 l 519 0 l 519 739 l 483 775 l 274 775 l 239 739 l 239 0 l 42 0 l 42 813 l 193 972 l 565 972 l 618 917 l 671 972 l 1043 972 z "},"N":{"ha":764,"x_min":44,"x_max":719,"o":"m 568 972 l 719 813 l 719 0 l 522 0 l 522 739 l 488 775 l 278 775 l 242 739 l 242 0 l 44 0 l 44 813 l 196 972 l 568 972 z "},"O":{"ha":764,"x_min":44,"x_max":719,"o":"m 196 0 l 44 160 l 44 813 l 196 972 l 568 972 l 719 813 l 719 160 l 568 0 l 196 0 m 242 233 l 278 197 l 488 197 l 522 233 l 522 739 l 488 775 l 278 775 l 242 739 l 242 233 z "},"Q":{"ha":764,"x_min":44,"x_max":719,"o":"m 283 0 l 196 0 l 44 160 l 44 813 l 196 972 l 568 972 l 719 813 l 719 160 l 568 0 l 481 0 l 481 -172 l 283 -172 l 283 0 m 242 233 l 278 197 l 488 197 l 522 233 l 522 739 l 488 775 l 278 775 l 242 739 l 242 233 z "},"P":{"ha":764,"x_min":44,"x_max":719,"o":"m 44 813 l 196 972 l 568 972 l 719 813 l 719 499 l 568 339 l 242 339 l 242 0 l 44 0 l 44 813 m 242 572 l 278 536 l 488 536 l 522 572 l 522 739 l 488 775 l 278 775 l 242 739 l 242 572 z "},"R":{"ha":764,"x_min":44,"x_max":719,"o":"m 350 339 l 242 339 l 242 0 l 44 0 l 44 813 l 196 972 l 568 972 l 719 813 l 719 499 l 568 339 l 719 0 l 499 0 l 350 339 m 242 572 l 278 536 l 488 536 l 522 572 l 522 739 l 488 775 l 278 775 l 242 739 l 242 572 z "},"S":{"ha":764,"x_min":44,"x_max":719,"o":"m 44 649 l 44 813 l 196 972 l 568 972 l 719 813 l 719 675 l 522 675 l 522 739 l 486 775 l 276 775 l 242 739 l 719 322 l 719 160 l 568 0 l 196 0 l 44 160 l 44 296 l 242 296 l 242 233 l 278 197 l 488 197 l 522 233 l 44 649 z "},"T":{"ha":764,"x_min":44,"x_max":719,"o":"m 719 972 l 719 775 l 481 775 l 481 0 l 283 0 l 283 775 l 44 775 l 44 972 l 719 972 z "},"U":{"ha":764,"x_min":44,"x_max":719,"o":"m 196 0 l 44 160 l 44 972 l 242 972 l 242 233 l 278 197 l 488 197 l 522 233 l 522 972 l 719 972 l 719 160 l 568 0 l 196 0 z "},"V":{"ha":764,"x_min":44,"x_max":719,"o":"m 719 233 l 382 0 l 44 233 l 44 972 l 242 972 l 242 339 l 382 240 l 522 339 l 522 972 l 719 972 l 719 233 z "},"W":{"ha":1238,"x_min":42,"x_max":1194,"o":"m 671 0 l 618 56 l 565 0 l 193 0 l 42 160 l 42 972 l 239 972 l 239 233 l 274 197 l 483 197 l 519 233 l 519 972 l 717 972 l 717 233 l 753 197 l 963 197 l 997 233 l 997 972 l 1194 972 l 1194 160 l 1043 0 l 671 0 z "},"Y":{"ha":764,"x_min":44,"x_max":719,"o":"m 283 265 l 44 431 l 44 972 l 242 972 l 242 536 l 382 438 l 522 536 l 522 972 l 719 972 l 719 431 l 481 265 l 481 0 l 283 0 l 283 265 z "},"Z":{"ha":764,"x_min":44,"x_max":719,"o":"m 242 233 l 276 197 l 719 197 l 719 0 l 196 0 l 44 160 l 44 322 l 522 739 l 488 775 l 44 775 l 44 972 l 568 972 l 719 813 l 719 649 l 242 233 z "},"a":{"ha":764,"x_min":44,"x_max":719,"o":"m 196 0 l 44 160 l 44 535 l 196 694 l 568 694 l 719 535 l 719 0 l 196 0 m 242 233 l 278 197 l 522 197 l 522 461 l 488 497 l 278 497 l 242 461 l 242 233 z "},"b":{"ha":764,"x_min":44,"x_max":719,"o":"m 196 0 l 44 160 l 44 972 l 242 972 l 242 694 l 568 694 l 719 535 l 719 160 l 568 0 l 196 0 m 242 233 l 278 197 l 488 197 l 522 233 l 522 461 l 488 497 l 278 497 l 242 461 l 242 233 z "},"d":{"ha":764,"x_min":44,"x_max":719,"o":"m 196 0 l 44 160 l 44 535 l 196 694 l 522 694 l 522 972 l 719 972 l 719 160 l 568 0 l 196 0 m 522 461 l 486 497 l 276 497 l 242 461 l 242 233 l 276 197 l 486 197 l 522 233 l 522 461 z "},"p":{"ha":764,"x_min":44,"x_max":719,"o":"m 568 694 l 719 535 l 719 160 l 568 0 l 242 0 l 242 -278 l 44 -278 l 44 535 l 196 694 l 568 694 m 242 233 l 278 197 l 488 197 l 522 233 l 522 461 l 488 497 l 278 497 l 242 461 l 242 233 z "},"q":{"ha":764,"x_min":44,"x_max":719,"o":"m 568 694 l 719 535 l 719 -278 l 522 -278 l 522 0 l 196 0 l 44 160 l 44 535 l 196 694 l 568 694 m 522 461 l 486 497 l 276 497 l 242 461 l 242 233 l 276 197 l 486 197 l 522 233 l 522 461 z "},"c":{"ha":764,"x_min":44,"x_max":719,"o":"m 568 694 l 719 535 l 719 397 l 522 397 l 522 461 l 486 497 l 276 497 l 242 461 l 242 233 l 276 197 l 486 197 l 522 233 l 522 296 l 719 296 l 719 161 l 568 0 l 196 0 l 44 161 l 44 535 l 196 694 l 568 694 z "},"e":{"ha":764,"x_min":44,"x_max":719,"o":"m 568 694 l 719 535 l 719 274 l 242 274 l 321 197 l 657 197 l 657 0 l 196 0 l 44 161 l 44 535 l 196 694 l 568 694 m 242 431 l 522 431 l 522 461 l 486 497 l 276 497 l 242 461 l 242 431 z "},"f":{"ha":704,"x_min":44,"x_max":719,"o":"m 568 972 l 719 813 l 719 675 l 522 675 l 522 739 l 486 775 l 369 775 l 335 739 l 335 536 l 486 536 l 486 339 l 335 339 l 335 0 l 138 0 l 138 339 l 44 339 l 44 536 l 138 536 l 138 813 l 289 972 l 568 972 z "},"g":{"ha":764,"x_min":44,"x_max":719,"o":"m 117 -278 l 117 -81 l 488 -81 l 522 -44 l 522 0 l 196 0 l 44 160 l 44 535 l 196 694 l 568 694 l 719 535 l 719 -118 l 568 -278 l 117 -278 m 522 461 l 486 497 l 276 497 l 242 461 l 242 233 l 276 197 l 486 197 l 522 233 l 522 461 z "},"h":{"ha":764,"x_min":44,"x_max":719,"o":"m 44 972 l 242 972 l 242 694 l 568 694 l 719 535 l 719 0 l 522 0 l 522 461 l 488 497 l 278 497 l 242 461 l 242 0 l 44 0 l 44 972 z "},"n":{"ha":764,"x_min":44,"x_max":719,"o":"m 568 694 l 719 535 l 719 0 l 522 0 l 522 461 l 488 497 l 278 497 l 242 461 l 242 0 l 44 0 l 44 535 l 196 694 l 568 694 z "},"m":{"ha":1238,"x_min":42,"x_max":1194,"o":"m 1043 694 l 1194 535 l 1194 0 l 997 0 l 997 461 l 963 497 l 753 497 l 717 461 l 717 0 l 519 0 l 519 461 l 483 497 l 274 497 l 239 461 l 239 0 l 42 0 l 42 535 l 193 694 l 565 694 l 618 639 l 671 694 l 1043 694 z "},"i":{"ha":281,"x_min":42,"x_max":239,"o":"m 239 0 l 42 0 l 42 693 l 239 693 l 239 0 m 42 972 l 239 972 l 239 775 l 42 775 l 42 972 z "},"j":{"ha":764,"x_min":44,"x_max":719,"o":"m 196 -278 l 44 -118 l 44 18 l 242 18 l 242 -44 l 278 -81 l 488 -81 l 522 -44 l 522 694 l 719 694 l 719 -118 l 568 -278 l 196 -278 m 522 972 l 719 972 l 719 775 l 522 775 l 522 972 z "},"k":{"ha":764,"x_min":44,"x_max":719,"o":"m 44 0 l 44 972 l 242 972 l 242 431 l 486 431 l 522 467 l 522 693 l 719 693 l 719 393 l 661 332 l 719 271 l 719 0 l 522 0 l 522 197 l 486 233 l 242 233 l 242 0 l 44 0 z "},"l":{"ha":281,"x_min":42,"x_max":239,"o":"m 239 0 l 42 0 l 42 972 l 239 972 l 239 0 z "},"o":{"ha":764,"x_min":44,"x_max":719,"o":"m 196 0 l 44 160 l 44 535 l 196 694 l 568 694 l 719 535 l 719 160 l 568 0 l 196 0 m 242 233 l 278 197 l 488 197 l 522 233 l 522 461 l 488 497 l 278 497 l 242 461 l 242 233 z "},"r":{"ha":764,"x_min":44,"x_max":719,"o":"m 568 694 l 719 535 l 719 397 l 522 397 l 522 461 l 486 497 l 276 497 l 242 461 l 242 0 l 44 0 l 44 535 l 196 694 l 568 694 z "},"s":{"ha":764,"x_min":44,"x_max":719,"o":"m 44 535 l 196 694 l 568 694 l 719 535 l 719 461 l 522 461 l 486 497 l 276 497 l 242 461 l 719 336 l 719 160 l 568 0 l 196 0 l 44 160 l 44 233 l 242 233 l 278 197 l 488 197 l 522 233 l 44 367 l 44 535 z "},"t":{"ha":764,"x_min":44,"x_max":719,"o":"m 44 775 l 150 775 l 150 972 l 347 972 l 347 775 l 522 775 l 522 578 l 347 578 l 347 233 l 382 197 l 486 197 l 522 233 l 522 296 l 719 296 l 719 160 l 568 0 l 301 0 l 150 160 l 150 578 l 44 578 l 44 775 z "},"u":{"ha":764,"x_min":44,"x_max":719,"o":"m 196 0 l 44 160 l 44 693 l 242 693 l 242 233 l 278 197 l 488 197 l 522 233 l 522 693 l 719 693 l 719 160 l 568 0 l 196 0 z "},"v":{"ha":764,"x_min":44,"x_max":719,"o":"m 719 233 l 382 0 l 44 233 l 44 694 l 242 694 l 242 339 l 382 240 l 522 339 l 522 694 l 719 694 l 719 233 z "},"w":{"ha":1236,"x_min":42,"x_max":1194,"o":"m 671 0 l 618 56 l 565 0 l 193 0 l 42 160 l 42 694 l 239 694 l 239 233 l 274 197 l 483 197 l 519 233 l 519 694 l 717 694 l 717 233 l 753 197 l 963 197 l 997 233 l 997 694 l 1194 694 l 1194 160 l 1043 0 l 671 0 z "},"x":{"ha":764,"x_min":44,"x_max":719,"o":"m 278 249 l 242 213 l 242 0 l 44 0 l 44 286 l 103 347 l 44 408 l 44 693 l 242 693 l 242 482 l 278 446 l 486 446 l 522 482 l 522 693 l 719 693 l 719 408 l 661 347 l 719 286 l 719 0 l 522 0 l 522 213 l 486 249 l 278 249 z "},"y":{"ha":764,"x_min":44,"x_max":719,"o":"m 283 0 l 44 165 l 44 693 l 242 693 l 242 271 l 382 172 l 522 271 l 522 693 l 719 693 l 719 165 l 481 0 l 481 -278 l 283 -278 l 283 0 z "},"z":{"ha":764,"x_min":44,"x_max":719,"o":"m 719 283 l 242 233 l 276 197 l 719 197 l 719 0 l 196 0 l 44 160 l 44 411 l 522 461 l 488 497 l 44 497 l 44 694 l 568 694 l 719 535 l 719 283 z "},"@":{"ha":764,"x_min":44,"x_max":719,"o":"m 488 775 l 278 775 l 242 739 l 242 233 l 278 197 l 624 197 l 624 0 l 196 0 l 44 160 l 44 813 l 196 972 l 568 972 l 719 813 l 719 381 l 328 381 l 272 439 l 272 581 l 328 638 l 467 638 l 522 581 l 522 739 l 488 775 m 440 464 l 440 533 l 421 554 l 372 554 l 353 533 l 353 483 l 372 464 l 440 464 z "},"[":{"ha":442,"x_min":50,"x_max":388,"o":"m 388 1169 l 388 972 l 247 972 l 247 -278 l 388 -278 l 388 -475 l 50 -475 l 50 1169 l 388 1169 z "},"]":{"ha":422,"x_min":43,"x_max":381,"o":"m 381 1169 l 381 -475 l 43 -475 l 43 -278 l 183 -278 l 183 972 l 43 972 l 43 1169 l 381 1169 z "},"\\":{"ha":764,"x_min":43,"x_max":721,"o":"m 721 0 l 500 0 l 43 972 l 261 972 l 721 0 z "},"⁄":{"ha":764,"x_min":43,"x_max":721,"o":"m 503 972 l 721 972 l 264 0 l 43 0 l 503 972 z "},"^":{"ha":764,"x_min":44,"x_max":719,"o":"m 568 972 l 719 813 l 719 619 l 522 619 l 522 739 l 488 775 l 278 775 l 242 739 l 242 619 l 44 619 l 44 813 l 196 972 l 568 972 z "},"ˆ":{"ha":464,"x_min":46,"x_max":418,"o":"m 310 972 l 418 857 l 418 717 l 276 717 l 276 803 l 251 829 l 215 829 l 189 803 l 189 717 l 46 717 l 46 857 l 156 972 l 310 972 z "},"â":{"ha":764,"x_min":46,"x_max":721,"o":"m 197 0 l 46 160 l 46 535 l 197 694 l 569 694 l 721 535 l 721 0 l 197 0 m 243 233 l 279 197 l 524 197 l 524 461 l 489 497 l 279 497 l 243 461 l 243 233 m 461 1053 l 569 938 l 569 797 l 428 797 l 428 883 l 403 910 l 367 910 l 340 883 l 340 797 l 197 797 l 197 938 l 307 1053 l 461 1053 z "},"Â":{"ha":764,"x_min":49,"x_max":724,"o":"m 724 814 l 724 0 l 526 0 l 526 339 l 246 339 l 246 0 l 49 0 l 49 814 l 203 972 l 574 972 l 724 814 m 526 740 l 489 775 l 281 775 l 246 740 l 246 536 l 526 536 l 526 740 m 468 1328 l 576 1213 l 576 1072 l 435 1072 l 435 1158 l 410 1185 l 374 1185 l 347 1158 l 347 1072 l 204 1072 l 204 1213 l 314 1328 l 468 1328 z "},"!":{"ha":281,"x_min":42,"x_max":239,"o":"m 239 279 l 42 279 l 42 972 l 239 972 l 239 279 m 42 197 l 239 197 l 239 0 l 42 0 l 42 197 z "},"¡":{"ha":281,"x_min":42,"x_max":239,"o":"m 239 0 l 42 0 l 42 693 l 239 693 l 239 0 m 42 972 l 239 972 l 239 775 l 42 775 l 42 972 z "},"(":{"ha":421,"x_min":42,"x_max":379,"o":"m 379 1239 l 379 1042 l 274 1042 l 239 1006 l 239 -242 l 274 -278 l 379 -278 l 379 -475 l 193 -475 l 42 -314 l 42 1079 l 193 1239 l 379 1239 z "},")":{"ha":421,"x_min":42,"x_max":379,"o":"m 228 1239 l 379 1079 l 379 -314 l 228 -475 l 42 -475 l 42 -278 l 147 -278 l 182 -242 l 182 1006 l 147 1042 l 42 1042 l 42 1239 l 228 1239 z "},"*":{"ha":671,"x_min":40,"x_max":624,"o":"m 240 832 l 240 972 l 431 972 l 431 835 l 556 883 l 624 706 l 494 656 l 578 542 l 425 429 l 338 549 l 250 429 l 97 542 l 178 653 l 40 706 l 108 883 l 240 832 z "},"+":{"ha":764,"x_min":44,"x_max":719,"o":"m 481 249 l 481 0 l 283 0 l 283 249 l 44 249 l 44 446 l 283 446 l 283 694 l 481 694 l 481 446 l 719 446 l 719 249 l 481 249 z "},".":{"ha":292,"x_min":49,"x_max":246,"o":"m 49 197 l 246 197 l 246 0 l 49 0 l 49 197 z "},",":{"ha":289,"x_min":44,"x_max":242,"o":"m 44 197 l 242 197 l 242 0 q 216 -73 242 -49 q 158 -108 190 -97 q 76 -119 122 -121 l 76 -71 q 115 -60 104 -71 q 131 -36 126 -50 q 132 0 135 -21 l 44 0 l 44 197 z "},";":{"ha":285,"x_min":44,"x_max":242,"o":"m 44 197 l 242 197 l 242 0 q 216 -73 242 -49 q 158 -108 190 -97 q 76 -119 122 -121 l 76 -71 q 115 -60 104 -71 q 131 -36 126 -50 q 132 0 135 -21 l 44 0 l 44 197 m 44 694 l 242 694 l 242 497 l 44 497 l 44 694 z "},":":{"ha":289,"x_min":46,"x_max":243,"o":"m 46 694 l 243 694 l 243 497 l 46 497 l 46 694 m 46 197 l 243 197 l 243 0 l 46 0 l 46 197 z "},"/":{"ha":764,"x_min":43,"x_max":721,"o":"m 503 972 l 721 972 l 264 0 l 43 0 l 503 972 z "},"<":{"ha":561,"x_min":42,"x_max":519,"o":"m 519 824 l 282 486 l 519 149 l 275 149 l 42 486 l 275 824 l 519 824 z "},">":{"ha":565,"x_min":46,"x_max":524,"o":"m 290 824 l 524 486 l 290 149 l 46 149 l 283 486 l 46 824 l 290 824 z "},"«":{"ha":917,"x_min":42,"x_max":875,"o":"m 519 824 l 282 486 l 519 149 l 275 149 l 42 486 l 275 824 l 519 824 m 875 824 l 638 486 l 875 149 l 631 149 l 397 486 l 631 824 l 875 824 z "},"»":{"ha":915,"x_min":40,"x_max":874,"o":"m 640 824 l 874 486 l 640 149 l 396 149 l 633 486 l 396 824 l 640 824 m 285 824 l 518 486 l 285 149 l 40 149 l 278 486 l 40 824 l 285 824 z "},"=":{"ha":764,"x_min":44,"x_max":719,"o":"m 719 763 l 719 565 l 44 565 l 44 763 l 719 763 m 719 407 l 719 210 l 44 210 l 44 407 l 719 407 z "},"?":{"ha":764,"x_min":44,"x_max":719,"o":"m 440 322 l 440 279 l 243 279 l 243 410 l 522 739 l 488 775 l 278 775 l 242 739 l 242 675 l 44 675 l 44 813 l 196 972 l 568 972 l 719 813 l 719 649 l 440 322 m 243 197 l 440 197 l 440 0 l 243 0 l 243 197 z "},"_":{"ha":764,"x_min":44,"x_max":719,"o":"m 44 0 l 719 0 l 719 -197 l 44 -197 l 44 0 z "},"`":{"ha":404,"x_min":46,"x_max":360,"o":"m 360 775 l 139 775 l 46 972 l 264 972 l 360 775 z "},"´":{"ha":404,"x_min":46,"x_max":360,"o":"m 142 972 l 360 972 l 267 775 l 46 775 l 142 972 z "},"\"":{"ha":644,"x_min":90,"x_max":560,"o":"m 90 972 l 288 972 l 288 636 l 90 636 l 90 972 m 363 972 l 560 972 l 560 636 l 363 636 l 363 972 z "},"#":{"ha":764,"x_min":44,"x_max":719,"o":"m 442 219 l 325 219 l 325 0 l 128 0 l 128 219 l 44 219 l 44 417 l 128 417 l 128 575 l 44 575 l 44 772 l 128 772 l 128 972 l 325 972 l 325 772 l 442 772 l 442 972 l 639 972 l 639 772 l 719 772 l 719 575 l 639 575 l 639 417 l 719 417 l 719 219 l 639 219 l 639 0 l 442 0 l 442 219 m 325 417 l 442 417 l 442 575 l 325 575 l 325 417 z "},"%":{"ha":761,"x_min":42,"x_max":719,"o":"m 492 0 l 425 71 l 425 233 l 492 304 l 653 304 l 719 233 l 719 71 l 653 0 l 492 0 m 111 668 l 44 739 l 44 901 l 111 972 l 272 972 l 339 901 l 339 739 l 272 668 l 111 668 m 501 961 l 719 961 l 263 -11 l 42 -11 l 501 961 z "},"&":{"ha":764,"x_min":44,"x_max":719,"o":"m 639 347 l 639 0 l 196 0 l 44 160 l 44 385 l 101 446 l 44 507 l 44 813 l 196 972 l 443 972 l 443 775 l 278 775 l 242 739 l 242 581 l 278 544 l 442 544 l 442 665 l 639 665 l 639 544 l 719 544 l 719 347 l 639 347 m 242 233 l 278 197 l 442 197 l 442 347 l 278 347 l 242 311 l 242 233 z "},"'":{"ha":288,"x_min":44,"x_max":242,"o":"m 44 972 l 242 972 l 242 713 l 44 713 l 44 972 z "},"-":{"ha":764,"x_min":44,"x_max":719,"o":"m 44 249 l 44 446 l 719 446 l 719 249 l 44 249 z "},"{":{"ha":519,"x_min":42,"x_max":478,"o":"m 42 482 l 140 482 l 140 1079 l 292 1239 l 478 1239 l 478 1042 l 372 1042 l 338 1006 l 338 -242 l 372 -278 l 478 -278 l 478 -475 l 292 -475 l 140 -314 l 140 282 l 42 282 l 42 482 z "},"}":{"ha":519,"x_min":42,"x_max":478,"o":"m 478 282 l 379 282 l 379 -314 l 228 -475 l 42 -475 l 42 -278 l 147 -278 l 182 -242 l 182 1006 l 147 1042 l 42 1042 l 42 1239 l 228 1239 l 379 1079 l 379 482 l 478 482 l 478 282 z "},"|":{"ha":281,"x_min":42,"x_max":239,"o":"m 239 0 l 42 0 l 42 972 l 239 972 l 239 0 z "},"~":{"ha":764,"x_min":44,"x_max":719,"o":"m 467 358 l 506 358 l 542 392 l 542 460 l 719 460 l 719 319 l 569 179 l 404 179 l 297 281 l 258 281 l 222 249 l 222 179 l 44 179 l 44 319 l 193 460 l 360 460 l 467 358 z "},"‚":{"ha":290,"x_min":46,"x_max":243,"o":"m 46 197 l 243 197 l 243 0 q 217 -73 243 -49 q 160 -108 192 -97 q 78 -119 124 -121 l 78 -71 q 117 -60 106 -71 q 132 -36 128 -50 q 133 0 136 -21 l 46 0 l 46 197 z "},"„":{"ha":625,"x_min":46,"x_max":581,"o":"m 46 197 l 243 197 l 243 0 q 217 -73 243 -49 q 160 -108 192 -97 q 78 -119 124 -121 l 78 -71 q 117 -60 106 -71 q 132 -36 128 -50 q 133 0 136 -21 l 46 0 l 46 197 m 383 197 l 581 197 l 581 0 q 555 -73 581 -49 q 497 -108 529 -97 q 415 -119 461 -121 l 415 -71 q 454 -60 443 -71 q 469 -36 465 -50 q 471 0 474 -21 l 383 0 l 383 197 z "},"…":{"ha":1036,"x_min":46,"x_max":981,"o":"m 46 197 l 243 197 l 243 0 l 46 0 l 46 197 m 783 197 l 981 197 l 981 0 l 783 0 l 783 197 m 415 197 l 613 197 l 613 0 l 415 0 l 415 197 z "},"©":{"ha":1057,"x_min":43,"x_max":1015,"o":"m 43 486 q 81 675 43 586 q 185 830 119 764 q 340 934 251 896 q 529 972 429 972 q 718 934 629 972 q 873 830 807 896 q 977 675 939 764 q 1015 486 1015 586 q 977 297 1015 386 q 873 142 939 208 q 718 38 807 76 q 529 0 629 0 q 340 38 429 0 q 185 142 251 76 q 81 297 119 208 q 43 486 43 386 m 194 486 q 221 356 194 417 q 292 249 247 294 q 399 178 338 204 q 529 151 460 151 q 660 178 599 151 q 766 249 721 204 q 838 356 811 294 q 864 486 864 417 q 838 617 864 556 q 766 723 811 678 q 660 794 721 768 q 529 821 599 821 q 399 794 460 821 q 292 723 338 768 q 221 617 247 678 q 194 486 194 556 m 667 735 l 775 619 l 775 521 l 633 521 l 633 567 l 607 593 l 456 593 l 431 567 l 431 403 l 456 376 l 607 376 l 633 403 l 633 447 l 775 447 l 775 350 l 667 235 l 397 235 l 289 350 l 289 619 l 397 735 l 667 735 z "},"®":{"ha":1056,"x_min":42,"x_max":1014,"o":"m 42 486 q 80 675 42 586 q 184 830 118 764 q 339 934 250 896 q 528 972 428 972 q 717 934 628 972 q 872 830 806 896 q 976 675 938 764 q 1014 486 1014 586 q 976 297 1014 386 q 872 142 938 208 q 717 38 806 76 q 528 0 628 0 q 339 38 428 0 q 184 142 250 76 q 80 297 118 208 q 42 486 42 386 m 193 486 q 219 356 193 417 q 291 249 246 294 q 397 178 336 204 q 528 151 458 151 q 658 178 597 151 q 765 249 719 204 q 836 356 810 294 q 863 486 863 417 q 836 617 863 556 q 765 723 810 678 q 658 794 719 768 q 528 821 597 821 q 397 794 458 821 q 291 723 336 768 q 219 617 246 678 q 193 486 193 556 m 514 410 l 458 410 l 458 235 l 357 235 l 357 656 l 435 739 l 628 739 l 706 656 l 706 493 l 628 410 l 706 235 l 592 235 l 514 410 m 458 531 l 478 511 l 585 511 l 603 531 l 603 617 l 585 636 l 478 636 l 458 617 l 458 531 z "},"’":{"ha":292,"x_min":47,"x_max":244,"o":"m 47 972 l 244 972 l 244 775 q 219 702 244 726 q 161 667 193 678 q 79 656 125 654 l 79 704 q 118 715 107 704 q 133 739 129 725 q 135 775 138 754 l 47 775 l 47 972 z "},"‘":{"ha":292,"x_min":47,"x_max":244,"o":"m 244 775 l 47 775 l 47 972 q 72 1045 47 1021 q 129 1081 97 1069 q 213 1092 165 1093 l 213 1043 q 172 1032 185 1043 q 157 1007 160 1021 q 157 972 151 992 l 244 972 l 244 775 z "},"“":{"ha":631,"x_min":47,"x_max":583,"o":"m 244 656 l 47 656 l 47 853 q 72 926 47 901 q 129 961 97 950 q 213 972 165 974 l 213 924 q 172 913 185 924 q 157 888 160 901 q 157 853 151 872 l 244 853 l 244 656 m 583 656 l 386 656 l 386 853 q 411 926 386 901 q 468 961 436 950 q 551 972 504 974 l 551 924 q 511 913 524 924 q 496 888 499 901 q 496 853 490 872 l 583 853 l 583 656 z "},"”":{"ha":631,"x_min":47,"x_max":583,"o":"m 386 972 l 583 972 l 583 775 q 558 702 583 726 q 500 667 532 678 q 418 656 464 654 l 418 704 q 457 715 446 704 q 472 739 468 725 q 474 775 476 754 l 386 775 l 386 972 m 47 972 l 244 972 l 244 775 q 219 702 244 726 q 161 667 193 678 q 79 656 125 654 l 79 704 q 118 715 107 704 q 133 739 129 725 q 135 775 138 754 l 47 775 l 47 972 z "},"•":{"ha":378,"x_min":42,"x_max":336,"o":"m 108 335 l 42 406 l 42 568 l 108 639 l 269 639 l 336 568 l 336 406 l 269 335 l 108 335 z "},"–":{"ha":608,"x_min":42,"x_max":567,"o":"m 42 249 l 42 446 l 567 446 l 567 249 l 42 249 z "},"—":{"ha":758,"x_min":42,"x_max":717,"o":"m 42 249 l 42 446 l 717 446 l 717 249 l 42 249 z "},"˜":{"ha":608,"x_min":47,"x_max":561,"o":"m 368 861 l 399 861 l 426 888 l 426 939 l 561 939 l 561 832 l 447 725 l 321 725 l 240 803 l 210 803 l 182 778 l 182 725 l 47 725 l 47 832 l 160 939 l 288 939 l 368 861 z "},"†":{"ha":764,"x_min":44,"x_max":719,"o":"m 719 724 l 719 526 l 481 526 l 481 0 l 283 0 l 283 526 l 44 526 l 44 724 l 283 724 l 283 972 l 481 972 l 481 724 l 719 724 z "},"‡":{"ha":764,"x_min":44,"x_max":719,"o":"m 719 763 l 719 565 l 481 565 l 481 407 l 719 407 l 719 210 l 481 210 l 481 0 l 283 0 l 283 210 l 44 210 l 44 407 l 283 407 l 283 565 l 44 565 l 44 763 l 283 763 l 283 972 l 481 972 l 481 763 l 719 763 z "},"æ":{"ha":1236,"x_min":42,"x_max":1194,"o":"m 1043 694 l 1194 535 l 1194 274 l 717 274 l 796 197 l 1132 197 l 1132 0 l 193 0 l 42 160 l 42 535 l 193 694 l 565 694 l 618 639 l 671 694 l 1043 694 m 239 233 l 275 197 l 519 197 l 519 461 l 485 497 l 275 497 l 239 461 l 239 233 m 717 431 l 997 431 l 997 461 l 961 497 l 751 497 l 717 461 l 717 431 z "},"Æ":{"ha":1235,"x_min":42,"x_max":1192,"o":"m 1040 972 l 1192 813 l 1192 675 l 994 675 l 994 739 l 958 775 l 749 775 l 717 742 l 717 536 l 958 536 l 958 339 l 717 339 l 717 231 l 749 197 l 958 197 l 994 233 l 994 296 l 1192 296 l 1192 161 l 1040 0 l 519 0 l 519 158 l 517 161 l 517 339 l 239 339 l 239 0 l 42 0 l 42 814 l 196 972 l 567 972 l 617 918 l 668 972 l 1040 972 m 239 536 l 517 536 l 517 743 l 482 775 l 274 775 l 239 740 l 239 536 z "},"Œ":{"ha":1238,"x_min":42,"x_max":1194,"o":"m 193 0 l 42 160 l 42 813 l 193 972 l 565 972 l 618 917 l 671 972 l 1043 972 l 1194 813 l 1194 675 l 997 675 l 997 739 l 961 775 l 751 775 l 717 739 l 717 536 l 961 536 l 961 339 l 717 339 l 717 233 l 751 197 l 961 197 l 997 233 l 997 296 l 1194 296 l 1194 161 l 1043 0 l 671 0 l 618 56 l 565 0 l 193 0 m 239 233 l 275 197 l 485 197 l 519 233 l 519 739 l 485 775 l 275 775 l 239 739 l 239 233 z "},"œ":{"ha":1236,"x_min":42,"x_max":1194,"o":"m 193 0 l 42 160 l 42 535 l 193 694 l 565 694 l 618 639 l 671 694 l 1043 694 l 1194 535 l 1194 274 l 717 274 l 796 197 l 1132 197 l 1132 0 l 671 0 l 618 56 l 565 0 l 193 0 m 239 233 l 275 197 l 485 197 l 519 233 l 519 461 l 485 497 l 275 497 l 239 461 l 239 233 m 717 431 l 997 431 l 997 461 l 961 497 l 751 497 l 717 461 l 717 431 z "},"·":{"ha":286,"x_min":44,"x_max":242,"o":"m 44 411 l 242 411 l 242 214 l 44 214 l 44 411 z "},"˛":{"ha":317,"x_min":40,"x_max":272,"o":"m 103 -22 l 103 0 l 211 0 l 211 -60 l 149 -124 l 149 -149 l 168 -171 l 272 -171 l 272 -278 l 126 -278 l 40 -189 l 40 -86 l 103 -22 z "},"¸":{"ha":332,"x_min":57,"x_max":289,"o":"m 289 -86 l 289 -189 l 203 -278 l 57 -278 l 57 -171 l 161 -171 l 181 -149 l 181 -124 l 118 -60 l 118 0 l 226 0 l 226 -22 l 289 -86 z "},"Ç":{"ha":764,"x_min":44,"x_max":719,"o":"m 503 -86 l 503 -189 l 417 -278 l 271 -278 l 271 -171 l 375 -171 l 394 -149 l 394 -124 l 332 -60 l 332 0 l 196 0 l 44 161 l 44 813 l 196 972 l 568 972 l 719 813 l 719 675 l 522 675 l 522 739 l 486 775 l 276 775 l 242 739 l 242 233 l 276 197 l 486 197 l 522 233 l 522 296 l 719 296 l 719 161 l 568 0 l 440 0 l 440 -22 l 503 -86 z "},"‹":{"ha":483,"x_min":42,"x_max":442,"o":"m 442 824 l 276 589 l 276 383 l 442 149 l 197 149 l 42 374 l 42 599 l 197 824 l 442 824 z "},"›":{"ha":483,"x_min":42,"x_max":442,"o":"m 286 824 l 442 599 l 442 374 l 286 149 l 42 149 l 207 383 l 207 589 l 42 824 l 286 824 z "},"‰":{"ha":764,"x_min":44,"x_max":719,"o":"m 111 668 l 44 739 l 44 901 l 111 972 l 272 972 l 339 901 l 339 739 l 272 668 l 111 668 m 44 297 l 44 517 l 719 832 l 719 611 l 44 297 m 111 1 l 44 72 l 44 235 l 111 306 l 272 306 l 339 235 l 339 72 l 272 1 l 111 1 m 492 1 l 425 72 l 425 235 l 492 306 l 653 306 l 719 235 l 719 72 l 653 1 l 492 1 z "},"µ":{"ha":764,"x_min":44,"x_max":719,"o":"m 44 693 l 242 693 l 242 233 l 278 197 l 488 197 l 522 233 l 522 693 l 719 693 l 719 160 l 568 0 l 242 0 l 242 -278 l 44 -278 l 44 693 z "},"±":{"ha":764,"x_min":44,"x_max":719,"o":"m 481 526 l 481 278 l 283 278 l 283 526 l 44 526 l 44 724 l 283 724 l 283 972 l 481 972 l 481 724 l 719 724 l 719 526 l 481 526 m 44 0 l 44 197 l 719 197 l 719 0 l 44 0 z "},"¦":{"ha":286,"x_min":44,"x_max":242,"o":"m 242 -278 l 44 -278 l 44 233 l 242 233 l 242 -278 m 242 461 l 44 461 l 44 972 l 242 972 l 242 461 z "},"¨":{"ha":461,"x_min":40,"x_max":413,"o":"m 40 1190 l 158 1190 l 158 1072 l 40 1072 l 40 1190 m 294 1190 l 413 1190 l 413 1072 l 294 1072 l 294 1190 z "},"Ë":{"ha":764,"x_min":44,"x_max":719,"o":"m 568 972 l 719 813 l 719 675 l 522 675 l 522 739 l 486 775 l 276 775 l 242 739 l 242 536 l 486 536 l 486 339 l 242 339 l 242 233 l 276 197 l 486 197 l 522 233 l 522 296 l 719 296 l 719 161 l 568 0 l 196 0 l 44 161 l 44 813 l 196 972 l 568 972 m 197 1192 l 315 1192 l 315 1074 l 197 1074 l 197 1192 m 451 1192 l 569 1192 l 569 1074 l 451 1074 l 451 1192 z "},"ß":{"ha":764,"x_min":44,"x_max":719,"o":"m 333 0 l 136 0 l 44 94 l 44 197 l 136 197 l 136 775 l 44 775 l 44 878 l 136 972 l 560 972 l 719 813 l 719 606 l 636 549 l 719 497 l 719 160 l 560 0 l 464 0 l 463 197 l 522 233 l 522 419 l 464 456 l 464 643 l 522 682 l 522 736 l 488 775 l 333 775 l 333 0 z "},"Þ":{"ha":764,"x_min":44,"x_max":719,"o":"m 568 781 l 719 621 l 719 351 l 568 192 l 242 192 l 242 0 l 44 0 l 44 972 l 240 972 l 240 781 l 568 781 m 242 425 l 278 389 l 488 389 l 522 425 l 522 547 l 488 583 l 278 583 l 242 547 l 242 425 z "},"¿":{"ha":764,"x_min":44,"x_max":719,"o":"m 324 650 l 324 693 l 521 693 l 521 563 l 242 233 l 276 197 l 486 197 l 522 233 l 522 297 l 719 297 l 719 160 l 568 0 l 196 0 l 44 160 l 44 324 l 324 650 m 521 775 l 324 775 l 324 972 l 521 972 l 521 775 z "},"ˇ":{"ha":467,"x_min":47,"x_max":419,"o":"m 157 717 l 47 832 l 47 972 l 190 972 l 190 886 l 217 860 l 253 860 l 278 886 l 278 972 l 419 972 l 419 832 l 311 717 l 157 717 z "},"À":{"ha":764,"x_min":44,"x_max":719,"o":"m 719 814 l 719 0 l 522 0 l 522 339 l 242 339 l 242 0 l 44 0 l 44 814 l 199 972 l 569 972 l 719 814 m 522 740 l 485 775 l 276 775 l 242 740 l 242 536 l 522 536 l 522 740 m 493 1072 l 272 1072 l 179 1269 l 397 1269 l 493 1072 z "},"Á":{"ha":764,"x_min":44,"x_max":719,"o":"m 719 814 l 719 0 l 522 0 l 522 339 l 242 339 l 242 0 l 44 0 l 44 814 l 199 972 l 569 972 l 719 814 m 522 740 l 485 775 l 276 775 l 242 740 l 242 536 l 522 536 l 522 740 m 369 1269 l 588 1269 l 494 1072 l 274 1072 l 369 1269 z "},"Ã":{"ha":764,"x_min":47,"x_max":722,"o":"m 722 814 l 722 0 l 525 0 l 525 339 l 244 339 l 244 0 l 47 0 l 47 814 l 201 972 l 572 972 l 722 814 m 525 740 l 488 775 l 279 775 l 244 740 l 244 536 l 525 536 l 525 740 m 446 1210 l 476 1210 l 504 1236 l 504 1288 l 639 1288 l 639 1181 l 525 1074 l 399 1074 l 318 1151 l 288 1151 l 260 1126 l 260 1074 l 125 1074 l 125 1181 l 238 1288 l 365 1288 l 446 1210 z "},"Ä":{"ha":764,"x_min":44,"x_max":719,"o":"m 719 814 l 719 0 l 522 0 l 522 339 l 242 339 l 242 0 l 44 0 l 44 814 l 199 972 l 569 972 l 719 814 m 522 740 l 485 775 l 276 775 l 242 740 l 242 536 l 522 536 l 522 740 m 194 1192 l 313 1192 l 313 1074 l 194 1074 l 194 1192 m 449 1192 l 567 1192 l 567 1074 l 449 1074 l 449 1192 z "},"È":{"ha":764,"x_min":44,"x_max":719,"o":"m 568 972 l 719 813 l 719 675 l 522 675 l 522 739 l 486 775 l 276 775 l 242 739 l 242 536 l 486 536 l 486 339 l 242 339 l 242 233 l 276 197 l 486 197 l 522 233 l 522 296 l 719 296 l 719 161 l 568 0 l 196 0 l 44 161 l 44 813 l 196 972 l 568 972 m 500 1074 l 279 1074 l 186 1271 l 404 1271 l 500 1074 z "},"þ":{"ha":764,"x_min":44,"x_max":719,"o":"m 242 0 l 242 -278 l 44 -278 l 44 972 l 242 972 l 242 694 l 568 694 l 719 535 l 719 160 l 568 0 l 242 0 m 242 233 l 278 197 l 488 197 l 522 233 l 522 461 l 488 497 l 278 497 l 242 461 l 242 233 z "},"ç":{"ha":764,"x_min":44,"x_max":719,"o":"m 503 -86 l 503 -189 l 417 -278 l 271 -278 l 271 -171 l 375 -171 l 394 -149 l 394 -124 l 332 -60 l 332 0 l 196 0 l 44 161 l 44 535 l 196 694 l 568 694 l 719 535 l 719 397 l 522 397 l 522 461 l 486 497 l 276 497 l 242 461 l 242 233 l 276 197 l 486 197 l 522 233 l 522 296 l 719 296 l 719 161 l 568 0 l 440 0 l 440 -22 l 503 -86 z "},"É":{"ha":764,"x_min":44,"x_max":719,"o":"m 568 972 l 719 813 l 719 675 l 522 675 l 522 739 l 486 775 l 276 775 l 242 739 l 242 536 l 486 536 l 486 339 l 242 339 l 242 233 l 276 197 l 486 197 l 522 233 l 522 296 l 719 296 l 719 161 l 568 0 l 196 0 l 44 161 l 44 813 l 196 972 l 568 972 m 351 1269 l 569 1269 l 476 1072 l 256 1072 l 351 1269 z "},"Ê":{"ha":764,"x_min":47,"x_max":722,"o":"m 571 972 l 722 813 l 722 675 l 525 675 l 525 739 l 489 775 l 279 775 l 244 739 l 244 536 l 489 536 l 489 339 l 244 339 l 244 233 l 279 197 l 489 197 l 525 233 l 525 296 l 722 296 l 722 161 l 571 0 l 199 0 l 47 161 l 47 813 l 199 972 l 571 972 m 461 1328 l 569 1213 l 569 1072 l 428 1072 l 428 1158 l 403 1185 l 367 1185 l 340 1158 l 340 1072 l 197 1072 l 197 1213 l 307 1328 l 461 1328 z "},"í":{"ha":281,"x_min":32,"x_max":346,"o":"m 239 0 l 42 0 l 42 693 l 239 693 l 239 0 m 128 996 l 346 996 l 253 799 l 32 799 l 128 996 z "},"ì":{"ha":281,"x_min":-54,"x_max":260,"o":"m 239 0 l 42 0 l 42 693 l 239 693 l 239 0 m 260 797 l 39 797 l -54 994 l 164 994 l 260 797 z "},"ë":{"ha":764,"x_min":44,"x_max":719,"o":"m 568 694 l 719 535 l 719 274 l 242 274 l 321 197 l 657 197 l 657 0 l 196 0 l 44 161 l 44 535 l 196 694 l 568 694 m 242 431 l 522 431 l 522 461 l 486 497 l 276 497 l 242 461 l 242 431 m 196 917 l 314 917 l 314 799 l 196 799 l 196 917 m 450 917 l 568 917 l 568 799 l 450 799 l 450 917 z "},"ê":{"ha":764,"x_min":46,"x_max":721,"o":"m 569 694 l 721 535 l 721 274 l 243 274 l 322 197 l 658 197 l 658 0 l 197 0 l 46 161 l 46 535 l 197 694 l 569 694 m 243 431 l 524 431 l 524 461 l 488 497 l 278 497 l 243 461 l 243 431 m 460 1053 l 568 938 l 568 797 l 426 797 l 426 883 l 401 910 l 365 910 l 339 883 l 339 797 l 196 797 l 196 938 l 306 1053 l 460 1053 z "},"é":{"ha":764,"x_min":44,"x_max":719,"o":"m 568 694 l 719 535 l 719 274 l 242 274 l 321 197 l 657 197 l 657 0 l 196 0 l 44 161 l 44 535 l 196 694 l 568 694 m 242 431 l 522 431 l 522 461 l 486 497 l 276 497 l 242 461 l 242 431 m 358 994 l 576 994 l 483 797 l 263 797 l 358 994 z "},"è":{"ha":764,"x_min":44,"x_max":719,"o":"m 568 694 l 719 535 l 719 274 l 242 274 l 321 197 l 657 197 l 657 0 l 196 0 l 44 161 l 44 535 l 196 694 l 568 694 m 242 431 l 522 431 l 522 461 l 486 497 l 276 497 l 242 461 l 242 431 m 500 799 l 279 799 l 186 996 l 404 996 l 500 799 z "},"ä":{"ha":764,"x_min":44,"x_max":719,"o":"m 196 0 l 44 160 l 44 535 l 196 694 l 568 694 l 719 535 l 719 0 l 196 0 m 242 233 l 278 197 l 522 197 l 522 461 l 488 497 l 278 497 l 242 461 l 242 233 m 196 918 l 314 918 l 314 800 l 196 800 l 196 918 m 450 918 l 568 918 l 568 800 l 450 800 l 450 918 z "},"ã":{"ha":764,"x_min":44,"x_max":719,"o":"m 196 0 l 44 160 l 44 535 l 196 694 l 568 694 l 719 535 l 719 0 l 196 0 m 242 233 l 278 197 l 522 197 l 522 461 l 488 497 l 278 497 l 242 461 l 242 233 m 446 935 l 476 935 l 504 961 l 504 1013 l 639 1013 l 639 906 l 525 799 l 399 799 l 318 876 l 288 876 l 260 851 l 260 799 l 125 799 l 125 906 l 238 1013 l 365 1013 l 446 935 z "},"á":{"ha":764,"x_min":44,"x_max":719,"o":"m 196 0 l 44 160 l 44 535 l 196 694 l 568 694 l 719 535 l 719 0 l 196 0 m 242 233 l 278 197 l 522 197 l 522 461 l 488 497 l 278 497 l 242 461 l 242 233 m 357 996 l 575 996 l 482 799 l 261 799 l 357 996 z "},"à":{"ha":764,"x_min":44,"x_max":719,"o":"m 196 0 l 44 160 l 44 535 l 196 694 l 568 694 l 719 535 l 719 0 l 196 0 m 242 233 l 278 197 l 522 197 l 522 461 l 488 497 l 278 497 l 242 461 l 242 233 m 503 799 l 282 799 l 189 996 l 407 996 l 503 799 z "},"Ý":{"ha":764,"x_min":44,"x_max":719,"o":"m 283 265 l 44 431 l 44 972 l 242 972 l 242 536 l 382 438 l 522 536 l 522 972 l 719 972 l 719 431 l 481 265 l 481 0 l 283 0 l 283 265 m 369 1271 l 588 1271 l 494 1074 l 274 1074 l 369 1271 z "},"Ü":{"ha":764,"x_min":44,"x_max":719,"o":"m 196 0 l 44 160 l 44 972 l 242 972 l 242 233 l 278 197 l 488 197 l 522 233 l 522 972 l 719 972 l 719 160 l 568 0 l 196 0 m 193 1190 l 311 1190 l 311 1072 l 193 1072 l 193 1190 m 447 1190 l 565 1190 l 565 1072 l 447 1072 l 447 1190 z "},"Û":{"ha":764,"x_min":49,"x_max":724,"o":"m 200 0 l 49 160 l 49 972 l 246 972 l 246 233 l 282 197 l 492 197 l 526 233 l 526 972 l 724 972 l 724 160 l 572 0 l 200 0 m 464 1329 l 572 1214 l 572 1074 l 431 1074 l 431 1160 l 406 1186 l 369 1186 l 343 1160 l 343 1074 l 200 1074 l 200 1214 l 310 1329 l 464 1329 z "},"Ú":{"ha":764,"x_min":44,"x_max":719,"o":"m 196 0 l 44 160 l 44 972 l 242 972 l 242 233 l 278 197 l 488 197 l 522 233 l 522 972 l 719 972 l 719 160 l 568 0 l 196 0 m 357 1271 l 575 1271 l 482 1074 l 261 1074 l 357 1271 z "},"Ù":{"ha":764,"x_min":44,"x_max":719,"o":"m 196 0 l 44 160 l 44 972 l 242 972 l 242 233 l 278 197 l 488 197 l 522 233 l 522 972 l 719 972 l 719 160 l 568 0 l 196 0 m 489 1074 l 268 1074 l 175 1271 l 393 1271 l 489 1074 z "},"Ö":{"ha":764,"x_min":44,"x_max":719,"o":"m 196 0 l 44 160 l 44 813 l 196 972 l 568 972 l 719 813 l 719 160 l 568 0 l 196 0 m 242 233 l 278 197 l 488 197 l 522 233 l 522 739 l 488 775 l 278 775 l 242 739 l 242 233 m 194 1190 l 313 1190 l 313 1072 l 194 1072 l 194 1190 m 449 1190 l 567 1190 l 567 1072 l 449 1072 l 449 1190 z "},"Õ":{"ha":764,"x_min":46,"x_max":721,"o":"m 197 0 l 46 160 l 46 813 l 197 972 l 569 972 l 721 813 l 721 160 l 569 0 l 197 0 m 243 233 l 279 197 l 489 197 l 524 233 l 524 739 l 489 775 l 279 775 l 243 739 l 243 233 m 447 1208 l 478 1208 l 506 1235 l 506 1286 l 640 1286 l 640 1179 l 526 1072 l 400 1072 l 319 1150 l 289 1150 l 261 1125 l 261 1072 l 126 1072 l 126 1179 l 239 1286 l 367 1286 l 447 1208 z "},"Ô":{"ha":764,"x_min":47,"x_max":722,"o":"m 199 0 l 47 160 l 47 813 l 199 972 l 571 972 l 722 813 l 722 160 l 571 0 l 199 0 m 244 233 l 281 197 l 490 197 l 525 233 l 525 739 l 490 775 l 281 775 l 244 739 l 244 233 m 460 1329 l 568 1214 l 568 1074 l 426 1074 l 426 1160 l 401 1186 l 365 1186 l 339 1160 l 339 1074 l 196 1074 l 196 1214 l 306 1329 l 460 1329 z "},"Ó":{"ha":764,"x_min":44,"x_max":719,"o":"m 196 0 l 44 160 l 44 813 l 196 972 l 568 972 l 719 813 l 719 160 l 568 0 l 196 0 m 242 233 l 278 197 l 488 197 l 522 233 l 522 739 l 488 775 l 278 775 l 242 739 l 242 233 m 357 1269 l 575 1269 l 482 1072 l 261 1072 l 357 1269 z "},"Ò":{"ha":764,"x_min":44,"x_max":719,"o":"m 196 0 l 44 160 l 44 813 l 196 972 l 568 972 l 719 813 l 719 160 l 568 0 l 196 0 m 242 233 l 278 197 l 488 197 l 522 233 l 522 739 l 488 775 l 278 775 l 242 739 l 242 233 m 499 1072 l 278 1072 l 185 1269 l 403 1269 l 499 1072 z "},"Ñ":{"ha":764,"x_min":47,"x_max":722,"o":"m 571 972 l 722 813 l 722 0 l 525 0 l 525 739 l 490 775 l 281 775 l 244 739 l 244 0 l 47 0 l 47 813 l 199 972 l 571 972 m 446 1210 l 476 1210 l 504 1236 l 504 1288 l 639 1288 l 639 1181 l 525 1074 l 399 1074 l 318 1151 l 288 1151 l 260 1126 l 260 1074 l 125 1074 l 125 1181 l 238 1288 l 365 1288 l 446 1210 z "},"×":{"ha":667,"x_min":42,"x_max":625,"o":"m 243 261 l 213 231 l 213 47 l 42 47 l 42 294 l 92 347 l 42 400 l 42 646 l 213 646 l 213 464 l 243 432 l 424 432 l 454 464 l 454 646 l 625 646 l 625 400 l 575 347 l 625 294 l 625 47 l 454 47 l 454 231 l 424 261 l 243 261 z "},"Ø":{"ha":764,"x_min":4,"x_max":761,"o":"m 663 1035 l 761 972 l 683 850 l 719 813 l 719 160 l 568 0 l 196 0 l 164 33 l 103 -64 l 4 -1 l 82 121 l 44 160 l 44 813 l 196 972 l 568 972 l 600 938 l 663 1035 m 278 775 l 242 739 l 242 372 l 493 768 l 488 775 l 278 775 m 278 197 l 488 197 l 522 233 l 522 596 l 272 203 l 278 197 z "},"Ð":{"ha":764,"x_min":44,"x_max":719,"o":"m 44 388 l 44 585 l 136 585 l 136 775 l 44 775 l 44 874 l 136 972 l 560 972 l 719 813 l 719 160 l 560 0 l 136 0 l 44 96 l 44 197 l 136 197 l 136 388 l 44 388 m 522 736 l 488 775 l 333 775 l 333 585 l 421 585 l 421 388 l 333 388 l 333 197 l 488 197 l 522 236 l 522 736 z "},"Ï":{"ha":281,"x_min":-51,"x_max":321,"o":"m 239 0 l 42 0 l 42 972 l 239 972 l 239 0 m -51 1192 l 67 1192 l 67 1074 l -51 1074 l -51 1192 m 203 1192 l 321 1192 l 321 1074 l 203 1074 l 203 1192 z "},"Î":{"ha":281,"x_min":-49,"x_max":324,"o":"m 239 0 l 42 0 l 42 972 l 239 972 l 239 0 m 215 1329 l 324 1214 l 324 1074 l 182 1074 l 182 1160 l 157 1186 l 121 1186 l 94 1160 l 94 1074 l -49 1074 l -49 1214 l 61 1329 l 215 1329 z "},"Í":{"ha":281,"x_min":22,"x_max":336,"o":"m 239 0 l 42 0 l 42 972 l 239 972 l 239 0 m 118 1271 l 336 1271 l 243 1074 l 22 1074 l 118 1271 z "},"Ì":{"ha":281,"x_min":-65,"x_max":249,"o":"m 239 0 l 42 0 l 42 972 l 239 972 l 239 0 m 249 1074 l 28 1074 l -65 1271 l 153 1271 l 249 1074 z "},"î":{"ha":281,"x_min":-47,"x_max":325,"o":"m 239 0 l 42 0 l 42 693 l 239 693 l 239 0 m 217 1054 l 325 939 l 325 799 l 183 799 l 183 885 l 158 911 l 122 911 l 96 885 l 96 799 l -47 799 l -47 939 l 63 1054 l 217 1054 z "},"ï":{"ha":281,"x_min":-49,"x_max":324,"o":"m 239 0 l 42 0 l 42 693 l 239 693 l 239 0 m -49 918 l 69 918 l 69 800 l -49 800 l -49 918 m 206 918 l 324 918 l 324 800 l 206 800 l 206 918 z "},"ñ":{"ha":764,"x_min":47,"x_max":722,"o":"m 571 694 l 722 535 l 722 0 l 525 0 l 525 461 l 490 497 l 281 497 l 244 461 l 244 0 l 47 0 l 47 535 l 199 694 l 571 694 m 447 935 l 478 935 l 506 961 l 506 1013 l 640 1013 l 640 906 l 526 799 l 400 799 l 319 876 l 289 876 l 261 851 l 261 799 l 126 799 l 126 906 l 239 1013 l 367 1013 l 447 935 z "},"ò":{"ha":764,"x_min":44,"x_max":719,"o":"m 196 0 l 44 160 l 44 535 l 196 694 l 568 694 l 719 535 l 719 160 l 568 0 l 196 0 m 242 233 l 278 197 l 488 197 l 522 233 l 522 461 l 488 497 l 278 497 l 242 461 l 242 233 m 483 799 l 263 799 l 169 996 l 388 996 l 483 799 z "},"ó":{"ha":764,"x_min":44,"x_max":719,"o":"m 196 0 l 44 160 l 44 535 l 196 694 l 568 694 l 719 535 l 719 160 l 568 0 l 196 0 m 242 233 l 278 197 l 488 197 l 522 233 l 522 461 l 488 497 l 278 497 l 242 461 l 242 233 m 354 996 l 572 996 l 479 799 l 258 799 l 354 996 z "},"ô":{"ha":764,"x_min":46,"x_max":721,"o":"m 197 0 l 46 160 l 46 535 l 197 694 l 569 694 l 721 535 l 721 160 l 569 0 l 197 0 m 243 233 l 279 197 l 489 197 l 524 233 l 524 461 l 489 497 l 279 497 l 243 461 l 243 233 m 460 1053 l 568 938 l 568 797 l 426 797 l 426 883 l 401 910 l 365 910 l 339 883 l 339 797 l 196 797 l 196 938 l 306 1053 l 460 1053 z "},"õ":{"ha":764,"x_min":44,"x_max":719,"o":"m 196 0 l 44 160 l 44 535 l 196 694 l 568 694 l 719 535 l 719 160 l 568 0 l 196 0 m 242 233 l 278 197 l 488 197 l 522 233 l 522 461 l 488 497 l 278 497 l 242 461 l 242 233 m 447 935 l 478 935 l 506 961 l 506 1013 l 640 1013 l 640 906 l 526 799 l 400 799 l 319 876 l 289 876 l 261 851 l 261 799 l 126 799 l 126 906 l 239 1013 l 367 1013 l 447 935 z "},"ö":{"ha":764,"x_min":44,"x_max":719,"o":"m 196 0 l 44 160 l 44 535 l 196 694 l 568 694 l 719 535 l 719 160 l 568 0 l 196 0 m 242 233 l 278 197 l 488 197 l 522 233 l 522 461 l 488 497 l 278 497 l 242 461 l 242 233 m 193 917 l 311 917 l 311 799 l 193 799 l 193 917 m 447 917 l 565 917 l 565 799 l 447 799 l 447 917 z "},"÷":{"ha":758,"x_min":42,"x_max":717,"o":"m 42 249 l 42 446 l 717 446 l 717 249 l 42 249 m 278 694 l 475 694 l 475 497 l 278 497 l 278 694 m 278 197 l 475 197 l 475 0 l 278 0 l 278 197 z "},"ø":{"ha":758,"x_min":14,"x_max":758,"o":"m 193 0 l 158 36 l 97 -25 l 14 57 l 78 121 l 42 160 l 42 535 l 193 694 l 565 694 l 606 651 l 675 722 l 758 640 l 686 567 l 717 535 l 717 160 l 565 0 l 193 0 m 239 461 l 239 283 l 451 497 l 275 497 l 239 461 m 485 197 l 519 233 l 519 400 l 318 197 l 485 197 z "},"ù":{"ha":756,"x_min":42,"x_max":717,"o":"m 193 0 l 42 160 l 42 693 l 239 693 l 239 233 l 275 197 l 485 197 l 519 233 l 519 693 l 717 693 l 717 160 l 565 0 l 193 0 m 494 797 l 274 797 l 181 994 l 399 994 l 494 797 z "},"ú":{"ha":764,"x_min":44,"x_max":719,"o":"m 196 0 l 44 160 l 44 693 l 242 693 l 242 233 l 278 197 l 488 197 l 522 233 l 522 693 l 719 693 l 719 160 l 568 0 l 196 0 m 369 994 l 588 994 l 494 797 l 274 797 l 369 994 z "},"û":{"ha":764,"x_min":49,"x_max":724,"o":"m 200 0 l 49 160 l 49 693 l 246 693 l 246 233 l 282 197 l 492 197 l 526 233 l 526 693 l 724 693 l 724 160 l 572 0 l 200 0 m 463 1054 l 571 939 l 571 799 l 429 799 l 429 885 l 404 911 l 368 911 l 342 885 l 342 799 l 199 799 l 199 939 l 308 1054 l 463 1054 z "},"ü":{"ha":764,"x_min":44,"x_max":719,"o":"m 196 0 l 44 160 l 44 693 l 242 693 l 242 233 l 278 197 l 488 197 l 522 233 l 522 693 l 719 693 l 719 160 l 568 0 l 196 0 m 194 917 l 313 917 l 313 799 l 194 799 l 194 917 m 449 917 l 567 917 l 567 799 l 449 799 l 449 917 z "},"ý":{"ha":764,"x_min":44,"x_max":719,"o":"m 283 0 l 44 165 l 44 693 l 242 693 l 242 271 l 382 172 l 522 271 l 522 693 l 719 693 l 719 165 l 481 0 l 481 -278 l 283 -278 l 283 0 m 364 994 l 582 994 l 489 797 l 268 797 l 364 994 z "},"ÿ":{"ha":764,"x_min":44,"x_max":719,"o":"m 283 0 l 44 165 l 44 693 l 242 693 l 242 271 l 382 172 l 522 271 l 522 693 l 719 693 l 719 165 l 481 0 l 481 -278 l 283 -278 l 283 0 m 200 917 l 318 917 l 318 799 l 200 799 l 200 917 m 454 917 l 572 917 l 572 799 l 454 799 l 454 917 z "},"ž":{"ha":764,"x_min":47,"x_max":722,"o":"m 722 283 l 244 233 l 279 197 l 722 197 l 722 0 l 199 0 l 47 160 l 47 411 l 525 461 l 490 497 l 47 497 l 47 694 l 571 694 l 722 535 l 722 283 m 307 799 l 197 914 l 197 1054 l 340 1054 l 340 968 l 367 942 l 403 942 l 428 968 l 428 1054 l 569 1054 l 569 914 l 461 799 l 307 799 z "},"Ÿ":{"ha":764,"x_min":44,"x_max":719,"o":"m 283 265 l 44 431 l 44 972 l 242 972 l 242 536 l 382 438 l 522 536 l 522 972 l 719 972 l 719 431 l 481 265 l 481 0 l 283 0 l 283 265 m 193 1765 l 311 1765 l 311 1647 l 193 1647 l 193 1765 m 447 1765 l 565 1765 l 565 1647 l 447 1647 l 447 1765 z "},"Ž":{"ha":764,"x_min":47,"x_max":722,"o":"m 244 233 l 279 197 l 722 197 l 722 0 l 199 0 l 47 160 l 47 322 l 525 739 l 490 775 l 47 775 l 47 972 l 571 972 l 722 813 l 722 649 l 244 233 m 306 1074 l 196 1189 l 196 1329 l 339 1329 l 339 1243 l 365 1217 l 401 1217 l 426 1243 l 426 1329 l 568 1329 l 568 1189 l 460 1074 l 306 1074 z "},"Š":{"ha":764,"x_min":44,"x_max":719,"o":"m 44 649 l 44 813 l 196 972 l 568 972 l 719 813 l 719 675 l 522 675 l 522 739 l 486 775 l 276 775 l 242 739 l 719 322 l 719 160 l 568 0 l 196 0 l 44 160 l 44 296 l 242 296 l 242 233 l 278 197 l 488 197 l 522 233 l 44 649 m 307 1074 l 197 1189 l 197 1329 l 340 1329 l 340 1243 l 367 1217 l 403 1217 l 428 1243 l 428 1329 l 569 1329 l 569 1189 l 461 1074 l 307 1074 z "},"D":{"ha":764,"x_min":44,"x_max":719,"o":"m 719 160 l 560 0 l 136 0 l 44 96 l 44 197 l 136 197 l 136 775 l 44 775 l 44 874 l 136 972 l 560 972 l 719 813 l 719 160 m 522 736 l 488 775 l 333 775 l 333 197 l 488 197 l 522 236 l 522 736 z "},"š":{"ha":764,"x_min":44,"x_max":719,"o":"m 44 535 l 196 694 l 568 694 l 719 535 l 719 461 l 522 461 l 486 497 l 276 497 l 242 461 l 719 336 l 719 160 l 568 0 l 196 0 l 44 160 l 44 233 l 242 233 l 278 197 l 488 197 l 522 233 l 44 367 l 44 535 m 306 799 l 196 914 l 196 1054 l 339 1054 l 339 968 l 365 942 l 401 942 l 426 968 l 426 1054 l 568 1054 l 568 914 l 460 799 l 306 799 z "},"A":{"ha":764,"x_min":44,"x_max":719,"o":"m 719 814 l 719 0 l 522 0 l 522 339 l 242 339 l 242 0 l 44 0 l 44 814 l 199 972 l 569 972 l 719 814 m 522 740 l 485 775 l 276 775 l 242 740 l 242 536 l 522 536 l 522 740 z "},"B":{"ha":764,"x_min":44,"x_max":719,"o":"m 719 539 l 668 482 l 719 431 l 719 160 l 560 0 l 136 0 l 44 96 l 44 197 l 136 197 l 136 775 l 44 775 l 44 874 l 136 972 l 560 972 l 719 813 l 719 539 m 522 347 l 488 383 l 333 383 l 333 197 l 488 197 l 522 232 l 522 347 m 522 736 l 488 775 l 333 775 l 333 581 l 488 581 l 522 619 l 522 736 z "},"C":{"ha":764,"x_min":44,"x_max":719,"o":"m 568 972 l 719 813 l 719 675 l 522 675 l 522 739 l 486 775 l 276 775 l 242 739 l 242 233 l 276 197 l 486 197 l 522 233 l 522 296 l 719 296 l 719 161 l 568 0 l 196 0 l 44 161 l 44 813 l 196 972 l 568 972 z "},"E":{"ha":764,"x_min":44,"x_max":719,"o":"m 568 972 l 719 813 l 719 675 l 522 675 l 522 739 l 486 775 l 276 775 l 242 739 l 242 536 l 486 536 l 486 339 l 242 339 l 242 233 l 276 197 l 486 197 l 522 233 l 522 296 l 719 296 l 719 161 l 568 0 l 196 0 l 44 161 l 44 813 l 196 972 l 568 972 z "}}}
